<?xml version="1.0" encoding="UTF-8"?>
<svg id="Camada_2" data-name="Camada 2" xmlns="http://www.w3.org/2000/svg" viewBox="0 0 1251.46 590.06">
  <defs>
    <style>
      .cls-1 {
        fill: #fff;
      }
    </style>
  </defs>
  <g id="Camada_1-2" data-name="Camada 1">
    <path class="cls-1" d="M733.44,330.9h-101.95v200.71h101.95c58.33,0,86.72-32.79,86.72-100.36s-28.39-100.36-86.72-100.36Zm0,150.27h-50.64v-99.78h50.64c16.11,0,35.35,8.66,35.35,49.86s-19.25,49.91-35.35,49.91Zm518.03-12.91c0,42.66-23.36,63.36-71.43,63.36h-119.94l34.49-50.44h85.46c17.46,0,19.98-6.74,20-14.19,.02-7.45-3.42-15.31-20-15.31h-45.8c-48.07,0-71.43-15.86-71.43-58.57s23.36-62.2,71.43-62.2h78.49l-34.53,50.49h-43.96c-16.59,0-19.63,7.96-19.72,15.13-.09,7.17,2.26,14.42,19.72,14.42h45.8c48.07,0,71.43,15.43,71.43,57.31Zm-274.66-137.35h51.36v100.36c0,67.56-28.34,100.36-86.67,100.36s-86.72-32.79-86.72-100.36v-100.36h51.31v100.36c0,41.3,19.25,49.91,35.4,49.91s35.3-8.61,35.3-49.91v-100.36ZM99.15,531.59H0v-200.71H158.15v50.49H51.31v29.55h106.84v40.72H51.31v29.5h98.27l-50.44,50.44Zm396.75-200.68c-28.05,0-52.32,9.89-72.14,29.41-19.79,19.49-29.83,43.36-29.83,70.94s10.04,51.43,29.84,70.92c19.82,19.52,44.09,29.41,72.14,29.41s52.32-9.9,72.14-29.41c19.79-19.49,29.83-43.36,29.83-70.92s-10.04-51.45-29.83-70.94c-19.82-19.52-44.09-29.41-72.14-29.41Zm43.77,98.08c.04,.75,.11,1.5,.11,2.26,0,24.24-19.65,43.88-43.88,43.88-11.26,0-21.51-4.28-29.28-11.26-20.29,5.75-35.41,6.1-38.46-.27-3.05-6.38,6.74-17.92,23.97-30.09-.04-.75-.12-1.5-.12-2.26,0-24.24,19.65-43.88,43.88-43.88,11.27,0,21.51,4.28,29.28,11.26,20.29-5.75,35.41-6.1,38.46,.27,3.05,6.38-6.74,17.92-23.97,30.09ZM765.31,119.92h55.52v166.03h-41.25v-88.22l-33.42,88.22h-44.83l-33.37-87.83v87.83h-41.3v-127.15l38.88-38.88h16.68l41.55,109.16,41.54-109.16Zm-436.78,166.03c23.17,0,43.28-8.22,59.63-24.38,16.64-16.35,24.71-35.55,24.71-58.66s-8.08-42.32-24.67-58.67c-16.44-16.15-36.51-24.33-59.68-24.33s-43.33,8.17-59.73,24.33c-16.59,16.35-24.67,35.55-24.67,58.67s8.08,42.32,24.67,58.66c16.4,16.15,36.47,24.38,59.73,24.38Zm-30.42-113.07c8.37-8.27,18.62-12.43,30.42-12.43s22,4.16,30.37,12.43c8.42,8.27,12.67,18.38,12.67,30.03s-4.26,21.76-12.67,30.03c-8.37,8.27-18.57,12.48-30.37,12.48s-22.05-4.21-30.42-12.43c-8.41-8.32-12.67-18.43-12.67-30.08s4.26-21.76,12.67-30.03Zm-193.41,88.7c-16.59-16.35-24.67-35.55-24.67-58.66s8.08-42.32,24.67-58.67c16.64-16.35,36.17-24.33,59.68-24.33h52.52v40.53h-52.52c-11.8,0-22,4.16-30.42,12.43-8.37,8.27-12.67,18.38-12.67,30.03s4.31,21.76,12.67,30.08c8.42,8.22,18.62,12.43,30.42,12.43h52.52v40.53h-52.52c-23.51,0-43.04-7.98-59.68-24.38Zm879.61,18.82c-10.38-4.04-19.82-10.29-28.45-18.82-16.64-16.35-24.71-35.55-24.71-58.66s8.08-42.32,24.71-58.67c16.59-16.35,36.13-24.33,59.68-24.33h52.48v40.53h-52.48c-11.8,0-22,4.16-30.42,12.43-8.42,8.27-12.67,18.38-12.67,30.03s4.26,21.76,12.67,30.08c8.36,8.22,18.62,12.43,30.42,12.43h52.48v40.53h-52.48c-11.29,0-21.66-1.83-31.23-5.55m-85.23,5.55h-41.3V119.92h41.3v166.03ZM640.7,24.05c-1.74-4.57,1.61-9.48,6.5-9.38,17.59,.36,42.29-9.14,54.56-14.4,2.66-1.14,5.32,1.51,4.2,4.17-5.19,12.34-14.59,37.19-14.25,54.79,.09,4.89-4.82,8.23-9.39,6.49-11.93-4.55-28.07-4.84-34.35-4.76-1.46,.02-2.6-1.13-2.58-2.59,.1-6.27-.15-22.38-4.69-34.32Zm-44.47,209.72c0,35.11-19.25,52.18-58.86,52.18h-72.45c-9.21,0-18.05,3.66-24.57,10.18l-132.82,132.82,3.01,4.29,67.37,98.37h-56.3l-39.5-54-9.15-14.09-126.31,126.31-59.24,.23,162.21-162.21-66.96-96.96h57.31l40.08,58.82,3.17,4.53,133.22-133.22c10-10,23.56-15.62,37.7-15.62h36.92s46.31,0,46.31,0c15.28,0,17.51-8.16,17.51-12.52,0-4.84-2.64-11.84-17.15-11.84h-38.26c-39.61,0-59.22-14.91-59.22-50.02s19.25-51.12,58.86-51.12h44.85c8.7,0,17.04-3.45,23.19-9.6l66.24-66.24-11.4,39.86,40.05-9.5-71.66,71.66c-9.19,9.19-21.65,14.35-34.65,14.35h-17.89s-38.74,0-38.74,0c-14.51,0-17.46,7.59-17.52,12.42-.08,6.16,2.24,13.65,17.52,13.65h38.26c7.88,0,14.94,.68,21.23,1.98,25.25,5.37,37.63,17.69,37.63,45.26Z"/>
  </g>
</svg>